<mxfile host="app.diagrams.net" modified="2021-09-11T08:31:26.463Z" agent="5.0 (Windows NT 10.0; Win64; x64) AppleWebKit/537.36 (KHTML, like Gecko) Chrome/93.0.4577.63 Safari/537.36" etag="fs0FcngKm_ozBIAgmabQ" version="15.1.4" type="github">
  <diagram id="kgpKYQtTHZ0yAKxKKP6v" name="Page-1">
    <mxGraphModel dx="811" dy="775" grid="1" gridSize="10" guides="1" tooltips="1" connect="1" arrows="1" fold="1" page="1" pageScale="1" pageWidth="850" pageHeight="1100" math="0" shadow="0">
      <root>
        <mxCell id="0" />
        <mxCell id="1" parent="0" />
        <mxCell id="bMWUF-sbN0BF11ZITua--1" value="Admin" style="shape=umlLifeline;perimeter=lifelinePerimeter;container=1;collapsible=0;recursiveResize=0;rounded=0;shadow=0;strokeWidth=1;" vertex="1" parent="1">
          <mxGeometry x="140" y="100" width="100" height="500" as="geometry" />
        </mxCell>
        <mxCell id="bMWUF-sbN0BF11ZITua--2" value="" style="points=[];perimeter=orthogonalPerimeter;rounded=0;shadow=0;strokeWidth=1;" vertex="1" parent="bMWUF-sbN0BF11ZITua--1">
          <mxGeometry x="45" y="80" width="10" height="40" as="geometry" />
        </mxCell>
        <mxCell id="bMWUF-sbN0BF11ZITua--3" value="Thiết bị/Giao diện" style="shape=umlLifeline;perimeter=lifelinePerimeter;container=1;collapsible=0;recursiveResize=0;rounded=0;shadow=0;strokeWidth=1;" vertex="1" parent="1">
          <mxGeometry x="320" y="100" width="100" height="500" as="geometry" />
        </mxCell>
        <mxCell id="bMWUF-sbN0BF11ZITua--4" value="" style="points=[];perimeter=orthogonalPerimeter;rounded=0;shadow=0;strokeWidth=1;" vertex="1" parent="bMWUF-sbN0BF11ZITua--3">
          <mxGeometry x="45" y="120" width="10" height="40" as="geometry" />
        </mxCell>
        <mxCell id="bMWUF-sbN0BF11ZITua--5" value="Chon Tour cần xóa" style="verticalAlign=bottom;endArrow=block;shadow=0;strokeWidth=1;" edge="1" parent="1" source="bMWUF-sbN0BF11ZITua--2">
          <mxGeometry x="-0.0286" y="1" relative="1" as="geometry">
            <mxPoint x="295" y="180" as="sourcePoint" />
            <mxPoint x="370" y="219" as="targetPoint" />
            <Array as="points">
              <mxPoint x="300" y="220" />
            </Array>
            <mxPoint as="offset" />
          </mxGeometry>
        </mxCell>
        <mxCell id="bMWUF-sbN0BF11ZITua--6" value="Hệ Thống" style="shape=umlLifeline;perimeter=lifelinePerimeter;container=1;collapsible=0;recursiveResize=0;rounded=0;shadow=0;strokeWidth=1;" vertex="1" parent="1">
          <mxGeometry x="490" y="100" width="100" height="500" as="geometry" />
        </mxCell>
        <mxCell id="bMWUF-sbN0BF11ZITua--7" value="" style="points=[];perimeter=orthogonalPerimeter;rounded=0;shadow=0;strokeWidth=1;" vertex="1" parent="bMWUF-sbN0BF11ZITua--6">
          <mxGeometry x="45" y="160" width="10" height="40" as="geometry" />
        </mxCell>
        <mxCell id="bMWUF-sbN0BF11ZITua--8" value="Yêu cầu hệ&amp;nbsp; thống" style="html=1;verticalAlign=bottom;endArrow=block;entryX=-0.1;entryY=0;entryDx=0;entryDy=0;entryPerimeter=0;" edge="1" parent="1" target="bMWUF-sbN0BF11ZITua--7">
          <mxGeometry x="0.0059" width="80" relative="1" as="geometry">
            <mxPoint x="365" y="260" as="sourcePoint" />
            <mxPoint x="530" y="260" as="targetPoint" />
            <mxPoint as="offset" />
          </mxGeometry>
        </mxCell>
        <mxCell id="bMWUF-sbN0BF11ZITua--9" value="Yêu cầu thành công" style="html=1;verticalAlign=bottom;endArrow=block;exitX=0.5;exitY=1;exitDx=0;exitDy=0;exitPerimeter=0;" edge="1" parent="1" source="bMWUF-sbN0BF11ZITua--7">
          <mxGeometry x="0.0588" width="80" relative="1" as="geometry">
            <mxPoint x="455" y="300" as="sourcePoint" />
            <mxPoint x="370" y="300" as="targetPoint" />
            <mxPoint as="offset" />
          </mxGeometry>
        </mxCell>
        <mxCell id="bMWUF-sbN0BF11ZITua--10" value="Hiển thị thông Tin Tour" style="html=1;verticalAlign=bottom;endArrow=block;exitX=0.5;exitY=1;exitDx=0;exitDy=0;exitPerimeter=0;" edge="1" parent="1" source="bMWUF-sbN0BF11ZITua--11">
          <mxGeometry width="80" relative="1" as="geometry">
            <mxPoint x="360" y="340" as="sourcePoint" />
            <mxPoint x="190" y="340" as="targetPoint" />
            <mxPoint as="offset" />
          </mxGeometry>
        </mxCell>
        <mxCell id="bMWUF-sbN0BF11ZITua--11" value="" style="points=[];perimeter=orthogonalPerimeter;rounded=0;shadow=0;strokeWidth=1;" vertex="1" parent="1">
          <mxGeometry x="365" y="300" width="10" height="40" as="geometry" />
        </mxCell>
        <mxCell id="bMWUF-sbN0BF11ZITua--12" value="" style="html=1;points=[];perimeter=orthogonalPerimeter;" vertex="1" parent="1">
          <mxGeometry x="535" y="420" width="10" height="40" as="geometry" />
        </mxCell>
        <mxCell id="bMWUF-sbN0BF11ZITua--13" value="" style="edgeStyle=orthogonalEdgeStyle;html=1;align=left;spacingLeft=2;endArrow=block;rounded=0;entryX=0.9;entryY=0.05;entryDx=0;entryDy=0;entryPerimeter=0;exitX=0.54;exitY=0.644;exitDx=0;exitDy=0;exitPerimeter=0;" edge="1" parent="1" target="bMWUF-sbN0BF11ZITua--30" source="bMWUF-sbN0BF11ZITua--6">
          <mxGeometry y="85" relative="1" as="geometry">
            <mxPoint x="545" y="300" as="sourcePoint" />
            <Array as="points">
              <mxPoint x="544" y="420" />
              <mxPoint x="575" y="420" />
              <mxPoint x="575" y="522" />
            </Array>
            <mxPoint as="offset" />
          </mxGeometry>
        </mxCell>
        <mxCell id="bMWUF-sbN0BF11ZITua--14" value="Yêu cầu thất bại" style="html=1;verticalAlign=bottom;endArrow=block;exitX=0.5;exitY=1;exitDx=0;exitDy=0;exitPerimeter=0;" edge="1" parent="1">
          <mxGeometry x="0.0324" y="-10" width="80" relative="1" as="geometry">
            <mxPoint x="537.75" y="560" as="sourcePoint" />
            <mxPoint x="367.75" y="560" as="targetPoint" />
            <mxPoint as="offset" />
          </mxGeometry>
        </mxCell>
        <mxCell id="bMWUF-sbN0BF11ZITua--15" value="" style="points=[];perimeter=orthogonalPerimeter;rounded=0;shadow=0;strokeWidth=1;" vertex="1" parent="1">
          <mxGeometry x="365" y="560" width="10" height="40" as="geometry" />
        </mxCell>
        <mxCell id="bMWUF-sbN0BF11ZITua--16" value="Hiển thị yêu cầu thất bại&lt;br&gt;và reload lại trang" style="html=1;verticalAlign=bottom;endArrow=block;exitX=-0.1;exitY=1.025;exitDx=0;exitDy=0;exitPerimeter=0;" edge="1" parent="1" source="bMWUF-sbN0BF11ZITua--15">
          <mxGeometry x="-0.0233" y="-1" width="80" relative="1" as="geometry">
            <mxPoint x="367.75" y="649" as="sourcePoint" />
            <mxPoint x="192" y="601" as="targetPoint" />
            <mxPoint as="offset" />
            <Array as="points">
              <mxPoint x="280" y="601" />
            </Array>
          </mxGeometry>
        </mxCell>
        <mxCell id="bMWUF-sbN0BF11ZITua--17" value="Xóa Tour" style="text;align=center;fontStyle=1;verticalAlign=middle;spacingLeft=3;spacingRight=3;strokeColor=none;rotatable=0;points=[[0,0.5],[1,0.5]];portConstraint=eastwest;" vertex="1" parent="1">
          <mxGeometry x="330" y="70" width="80" height="26" as="geometry" />
        </mxCell>
        <mxCell id="bMWUF-sbN0BF11ZITua--18" value="Đăng Nhập thành công" style="html=1;verticalAlign=bottom;endArrow=block;exitX=0.5;exitY=1;exitDx=0;exitDy=0;exitPerimeter=0;" edge="1" parent="1">
          <mxGeometry width="80" relative="1" as="geometry">
            <mxPoint x="370" y="160" as="sourcePoint" />
            <mxPoint x="190" y="160" as="targetPoint" />
            <mxPoint as="offset" />
          </mxGeometry>
        </mxCell>
        <mxCell id="bMWUF-sbN0BF11ZITua--19" value="" style="points=[];perimeter=orthogonalPerimeter;rounded=0;shadow=0;strokeWidth=1;" vertex="1" parent="1">
          <mxGeometry x="185" y="340" width="10" height="40" as="geometry" />
        </mxCell>
        <mxCell id="bMWUF-sbN0BF11ZITua--20" value="Yêu cầu Xóa" style="html=1;verticalAlign=bottom;endArrow=block;entryX=-0.1;entryY=0;entryDx=0;entryDy=0;entryPerimeter=0;" edge="1" parent="1">
          <mxGeometry x="0.0059" width="80" relative="1" as="geometry">
            <mxPoint x="195" y="380" as="sourcePoint" />
            <mxPoint x="364" y="380" as="targetPoint" />
            <mxPoint as="offset" />
          </mxGeometry>
        </mxCell>
        <mxCell id="bMWUF-sbN0BF11ZITua--21" value="" style="points=[];perimeter=orthogonalPerimeter;rounded=0;shadow=0;strokeWidth=1;" vertex="1" parent="1">
          <mxGeometry x="365" y="380" width="10" height="40" as="geometry" />
        </mxCell>
        <mxCell id="bMWUF-sbN0BF11ZITua--22" value="Yêu cầu hệ&amp;nbsp; thống" style="html=1;verticalAlign=bottom;endArrow=block;entryX=-0.1;entryY=0;entryDx=0;entryDy=0;entryPerimeter=0;" edge="1" parent="1">
          <mxGeometry x="0.0059" width="80" relative="1" as="geometry">
            <mxPoint x="366" y="419" as="sourcePoint" />
            <mxPoint x="535" y="419" as="targetPoint" />
            <mxPoint as="offset" />
          </mxGeometry>
        </mxCell>
        <mxCell id="bMWUF-sbN0BF11ZITua--23" value="Yêu cầu thành công" style="html=1;verticalAlign=bottom;endArrow=block;exitX=0.5;exitY=1;exitDx=0;exitDy=0;exitPerimeter=0;" edge="1" parent="1">
          <mxGeometry x="0.0588" width="80" relative="1" as="geometry">
            <mxPoint x="545" y="460" as="sourcePoint" />
            <mxPoint x="375" y="460" as="targetPoint" />
            <mxPoint as="offset" />
          </mxGeometry>
        </mxCell>
        <mxCell id="bMWUF-sbN0BF11ZITua--24" value="" style="points=[];perimeter=orthogonalPerimeter;rounded=0;shadow=0;strokeWidth=1;" vertex="1" parent="1">
          <mxGeometry x="365" y="460" width="10" height="40" as="geometry" />
        </mxCell>
        <mxCell id="bMWUF-sbN0BF11ZITua--25" value="Hiển thị xóa thành công&lt;br&gt;và reload lại trang" style="html=1;verticalAlign=bottom;endArrow=block;exitX=-0.1;exitY=1.025;exitDx=0;exitDy=0;exitPerimeter=0;" edge="1" parent="1">
          <mxGeometry width="80" relative="1" as="geometry">
            <mxPoint x="365" y="500" as="sourcePoint" />
            <mxPoint x="190.5" y="499" as="targetPoint" />
            <mxPoint as="offset" />
            <Array as="points">
              <mxPoint x="351" y="499" />
            </Array>
          </mxGeometry>
        </mxCell>
        <mxCell id="bMWUF-sbN0BF11ZITua--30" value="" style="html=1;points=[];perimeter=orthogonalPerimeter;" vertex="1" parent="1">
          <mxGeometry x="535" y="520" width="10" height="40" as="geometry" />
        </mxCell>
      </root>
    </mxGraphModel>
  </diagram>
</mxfile>
